<svg width="646" height="400" viewBox="0 0 646 400" fill="none" xmlns="http://www.w3.org/2000/svg">
<path d="M147.891 210.841H499.797" stroke="#EB5D1D" stroke-width="2.83" stroke-dasharray="8.57 5.74"/>
<path d="M126.043 363.351H333.212" stroke="#EB5D1D" stroke-width="2.83" stroke-dasharray="8.5 5.66"/>
<path d="M561.02 59.4433C582.828 61.5538 638.952 72.3223 643.681 127.277" stroke="#EB5D1D" stroke-width="2.83" stroke-dasharray="8.79 5.96"/>
<path d="M643.296 145.468C636.531 199.939 577.788 208.988 558.523 210.481" stroke="#EB5D1D" stroke-width="2.83" stroke-dasharray="8.79 5.96"/>
<path d="M552.383 58.9285C552.383 58.9285 553.704 58.9285 556.031 59.0623M556.031 210.645C553.704 210.779 552.383 210.779 552.383 210.779L556.031 210.645ZM643.804 130.334C643.879 131.807 643.921 133.32 643.921 134.854C643.921 136.388 643.921 137.942 643.804 139.373V130.334Z" stroke="#EB5D1D" stroke-width="2.83"/>
<path d="M332.363 58.9285H552.49" stroke="#EB5D1D" stroke-width="2.83" stroke-dasharray="8.54 5.7"/>
<path d="M502.949 210.841H552.491" stroke="#EB5D1D" stroke-width="2.83" stroke-dasharray="7.88 5.05"/>
<path d="M85.0695 362.846C63.1865 360.726 7.03708 349.905 2.31641 294.683" stroke="#EB5D1D" stroke-width="2.83" stroke-dasharray="8.81 5.97"/>
<path d="M2.63281 276.472C9.398 221.754 68.1986 212.643 87.5384 211.16" stroke="#EB5D1D" stroke-width="2.83" stroke-dasharray="8.81 5.97"/>
<path d="M93.6791 363.361C93.6791 363.361 92.3493 363.361 90.0222 363.227M90.0222 210.995C92.3493 210.862 93.6791 210.862 93.6791 210.862L90.0222 210.995ZM2.10805 291.646C2.03325 290.164 2 288.661 2 287.116C2 285.572 2 284.028 2.10805 282.587V291.646Z" stroke="#EB5D1D" stroke-width="2.83"/>
<path d="M143.505 363.351H93.5391" stroke="#EB5D1D" stroke-width="2.83" stroke-dasharray="7.94 5.11"/>
<path d="M143.505 210.841H93.5391" stroke="#EB5D1D" stroke-width="2.83" stroke-dasharray="7.94 5.11"/>
<path d="M332.123 64.6215C333.096 64.6236 334.048 64.2679 334.859 63.5994C335.669 62.931 336.301 61.9798 336.674 60.8664C337.048 59.7529 337.147 58.5272 336.958 57.3442C336.769 56.1613 336.301 55.0744 335.613 54.221C334.925 53.3677 334.049 52.7862 333.094 52.5502C332.139 52.3142 331.15 52.4343 330.25 52.8952C329.351 53.3562 328.582 54.1374 328.041 55.1398C327.5 56.1423 327.211 57.3211 327.211 58.5269C327.211 60.1415 327.728 61.6902 328.649 62.8328C329.57 63.9755 330.819 64.6188 332.123 64.6215Z" fill="#EB5D1D"/>
<path d="M332.365 216.884C333.339 216.884 334.291 216.527 335.1 215.856C335.909 215.186 336.54 214.234 336.912 213.12C337.284 212.005 337.381 210.779 337.19 209.597C337 208.414 336.53 207.328 335.842 206.476C335.153 205.624 334.275 205.045 333.32 204.811C332.365 204.577 331.376 204.699 330.477 205.162C329.578 205.625 328.81 206.407 328.271 207.411C327.731 208.415 327.444 209.594 327.445 210.8C327.448 212.414 327.967 213.962 328.889 215.103C329.812 216.244 331.062 216.884 332.365 216.884Z" fill="#EB5D1D"/>
<path d="M332.365 369.682C333.339 369.682 334.29 369.325 335.099 368.655C335.908 367.985 336.539 367.034 336.911 365.92C337.283 364.806 337.381 363.581 337.191 362.399C337.001 361.216 336.533 360.13 335.844 359.278C335.156 358.426 334.28 357.845 333.325 357.61C332.371 357.375 331.382 357.496 330.483 357.957C329.584 358.418 328.815 359.199 328.274 360.202C327.734 361.204 327.445 362.382 327.445 363.588C327.445 364.388 327.573 365.181 327.82 365.92C328.067 366.659 328.43 367.331 328.886 367.897C329.343 368.463 329.886 368.912 330.483 369.218C331.08 369.525 331.719 369.682 332.365 369.682Z" fill="#EB5D1D"/>
<path d="M301.304 83.9452C299.817 83.5643 298.595 82.6377 298.595 80.6611C298.595 78.4991 300.423 77.3873 302.144 77.3873C304.006 77.3873 305.468 78.4168 305.826 80.8567H304.205C304.08 80.2804 303.79 79.78 303.39 79.4485C302.989 79.1171 302.505 78.9773 302.028 79.0551C301.304 79.0551 300.232 79.4566 300.232 80.5993C300.232 81.495 300.814 81.948 301.629 82.1333L302.784 82.4113C304.446 82.7922 305.992 83.5643 305.992 85.891C305.992 88.2176 304.114 89.4324 302.26 89.4324C300.025 89.4324 298.52 87.9397 298.312 85.3762H299.975C300.055 86.0796 300.35 86.7184 300.798 87.1623C301.245 87.6061 301.813 87.8215 302.385 87.7647C303.499 87.7647 304.388 87.1367 304.388 86.0145C304.388 84.8923 303.357 84.4291 302.46 84.2232L301.304 83.9452Z" fill="#EB5D1D"/>
<path d="M308.677 85.4585C308.675 86.0839 308.871 86.6853 309.224 87.1323C309.578 87.5794 310.059 87.8361 310.564 87.8469C310.915 87.8983 311.271 87.8092 311.579 87.5925C311.887 87.3758 312.131 87.043 312.276 86.6425H313.788C313.59 87.4783 313.171 88.2075 312.598 88.7133C312.026 89.2191 311.333 89.4723 310.63 89.4324C310.149 89.4453 309.672 89.3339 309.228 89.1053C308.784 88.8768 308.384 88.5361 308.052 88.1049C307.72 87.6738 307.465 87.1618 307.302 86.6015C307.139 86.0413 307.072 85.4451 307.106 84.8511C307.079 84.2765 307.147 83.701 307.307 83.1604C307.466 82.6199 307.714 82.1257 308.034 81.7087C308.355 81.2916 308.741 80.9606 309.169 80.7361C309.597 80.5116 310.057 80.3985 310.522 80.4037C312.658 80.4037 314.013 82.5656 313.846 85.4585H308.677ZM308.677 84.0584H312.3C312.301 83.771 312.254 83.4865 312.165 83.2215C312.075 82.9564 311.943 82.7163 311.778 82.515C311.612 82.3137 311.416 82.1553 311.2 82.0491C310.984 81.9429 310.754 81.891 310.522 81.8965C310.048 81.8905 309.591 82.1126 309.247 82.5159C308.903 82.9192 308.698 83.4722 308.677 84.0584Z" fill="#EB5D1D"/>
<path d="M314.719 86.8484C314.719 84.6864 316.871 84.1717 319.406 83.8319V83.6363C319.406 82.1539 318.733 81.7112 317.96 81.7112C317.784 81.6864 317.605 81.7083 317.436 81.7752C317.267 81.8422 317.112 81.9528 316.98 82.0997C316.848 82.2466 316.743 82.4265 316.671 82.6274C316.599 82.8284 316.563 83.046 316.564 83.2657H315.01C315.118 81.5156 316.298 80.3008 317.977 80.3008C319.655 80.3008 320.96 81.2479 320.919 84.0069C320.919 84.4187 320.919 85.4482 320.919 86.2306C320.904 87.2218 320.974 88.2122 321.127 89.1853H319.714C319.652 88.7974 319.608 88.4056 319.581 88.0117C319.334 88.4761 318.991 88.8494 318.587 89.0922C318.183 89.335 317.734 89.4383 317.287 89.3912C315.783 89.4324 314.719 88.4235 314.719 86.8484ZM319.448 85.1703C317.262 85.4276 316.356 85.8291 316.356 86.8072C316.356 87.5587 316.863 88.0014 317.636 88.0014C317.877 88.044 318.122 88.0178 318.354 87.9248C318.585 87.8319 318.796 87.6745 318.971 87.4649C319.146 87.2553 319.28 86.9989 319.363 86.7154C319.445 86.4319 319.474 86.1288 319.448 85.8292V85.1703Z" fill="#EB5D1D"/>
<path d="M322.732 78.3139H324.27V80.5993H325.666V81.9789H324.27V86.7249C324.27 87.6102 324.436 87.8161 325.101 87.8161H325.658V89.278H324.519C323.023 89.278 322.732 88.7838 322.732 87.0131V82.0304H321.66V80.6508H322.699L322.732 78.3139Z" fill="#EB5D1D"/>
<path d="M327.128 78.3139H328.674V80.5993H330.07V81.9789H328.674V86.7249C328.674 87.6102 328.84 87.8161 329.505 87.8161H330.061V89.278H328.923C327.435 89.278 327.136 88.7838 327.136 87.0131V82.0304H326.105V80.6508H327.136L327.128 78.3139Z" fill="#EB5D1D"/>
<path d="M332.854 89.2265H331.316V77.5932H332.854V89.2265Z" fill="#EB5D1D"/>
<path d="M335.69 85.4585C335.69 86.0849 335.889 86.6863 336.243 87.133C336.598 87.5798 337.08 87.8362 337.585 87.847C337.929 87.8847 338.274 87.7891 338.571 87.5732C338.869 87.3574 339.106 87.0321 339.247 86.6425H340.777C340.577 87.4773 340.158 88.2055 339.585 88.711C339.013 89.2166 338.321 89.4705 337.618 89.4324C337.138 89.4453 336.66 89.3339 336.216 89.1054C335.772 88.8768 335.372 88.5361 335.04 88.105C334.709 87.6739 334.453 87.1618 334.29 86.6016C334.128 86.0413 334.061 85.4451 334.094 84.8511C334.066 84.2761 334.133 83.7 334.293 83.1587C334.452 82.6175 334.699 82.1227 335.02 81.7054C335.341 81.288 335.727 80.957 336.156 80.733C336.584 80.5091 337.045 80.3969 337.51 80.4037C339.646 80.4037 340.993 82.5656 340.835 85.4585H335.69ZM335.69 84.0584H339.322C339.321 83.7714 339.274 83.4875 339.184 83.2231C339.094 82.9587 338.962 82.7191 338.797 82.5181C338.631 82.317 338.435 82.1586 338.22 82.0519C338.005 81.9452 337.775 81.8924 337.544 81.8965C337.068 81.8878 336.609 82.1087 336.263 82.5123C335.917 82.9158 335.712 83.4704 335.69 84.0584Z" fill="#EB5D1D"/>
<path d="M341.82 87.0441H343.574V89.381L342.668 91.7592H341.754L342.585 89.2266H341.754L341.82 87.0441Z" fill="#EB5D1D"/>
<path d="M355.595 86.591L357.024 77.5932H358.745L356.559 89.2265H354.614L353.035 80.3111L351.481 89.2265H349.511L347.309 77.5932H349.087L350.592 86.5807L352.079 77.5932H353.982L355.595 86.591Z" fill="#EB5D1D"/>
<path d="M361.751 77.5932H363.488L367.004 89.2265H365.209L364.469 86.6425H360.663L359.94 89.2265H358.277L361.751 77.5932ZM361.145 84.9438H363.979L362.549 79.9508L361.145 84.9438Z" fill="#EB5D1D"/>
<path d="M287.084 236.774C285.597 236.393 284.375 235.467 284.375 233.49C284.375 231.328 286.203 230.216 287.924 230.216C289.785 230.216 291.248 231.246 291.597 233.685H290.01C289.885 233.109 289.595 232.609 289.195 232.277C288.794 231.946 288.31 231.806 287.832 231.884C287.109 231.884 286.037 232.285 286.037 233.428C286.037 234.324 286.619 234.777 287.433 234.972L288.589 235.24C290.251 235.621 291.797 236.393 291.797 238.72C291.797 241.046 289.918 242.261 288.065 242.261C285.829 242.261 284.325 240.768 284.117 238.205H285.779C285.858 238.908 286.151 239.546 286.597 239.99C287.044 240.434 287.611 240.65 288.181 240.593C289.295 240.593 290.193 239.976 290.193 238.843C290.193 237.711 289.154 237.258 288.264 237.052L287.084 236.774Z" fill="#EB5D1D"/>
<path d="M292.754 239.688C292.754 237.515 294.906 237.001 297.441 236.671V236.506C297.441 235.034 296.768 234.581 295.995 234.581C295.819 234.556 295.641 234.578 295.472 234.645C295.303 234.712 295.147 234.823 295.015 234.97C294.883 235.117 294.778 235.296 294.706 235.497C294.634 235.698 294.598 235.916 294.599 236.136H293.078C293.186 234.386 294.366 233.171 296.045 233.171C297.724 233.171 299.02 234.118 298.987 236.877C298.987 237.289 298.987 238.318 298.987 239.101C298.968 240.092 299.038 241.083 299.195 242.055H297.782C297.717 241.668 297.672 241.276 297.649 240.882C297.402 241.346 297.059 241.719 296.655 241.962C296.252 242.205 295.802 242.308 295.355 242.261C293.818 242.261 292.754 241.252 292.754 239.688ZM297.483 237.999C295.297 238.257 294.391 238.658 294.391 239.636C294.391 240.388 294.89 240.841 295.671 240.841C295.912 240.881 296.158 240.854 296.39 240.759C296.621 240.665 296.832 240.507 297.007 240.296C297.181 240.086 297.315 239.829 297.397 239.545C297.48 239.261 297.509 238.958 297.483 238.658V237.999Z" fill="#EB5D1D"/>
<path d="M306.601 236.383H305.096C305.023 235.926 304.82 235.517 304.524 235.23C304.229 234.943 303.859 234.797 303.484 234.818C302.512 234.818 301.656 235.703 301.656 237.742C301.656 239.78 302.536 240.676 303.442 240.676C303.834 240.721 304.226 240.585 304.542 240.295C304.858 240.004 305.076 239.579 305.155 239.101H306.65C306.501 240.017 306.094 240.837 305.502 241.416C304.91 241.995 304.171 242.294 303.418 242.261C302.503 242.158 301.654 241.632 301.038 240.789C300.423 239.945 300.086 238.846 300.094 237.709C300.102 236.572 300.456 235.48 301.084 234.651C301.712 233.822 302.568 233.315 303.484 233.233C304.221 233.211 304.941 233.516 305.512 234.094C306.084 234.672 306.47 235.483 306.601 236.383Z" fill="#EB5D1D"/>
<path d="M311.685 235.364C311.428 235.364 311.178 235.364 310.946 235.364C309.973 235.364 309.416 235.837 309.416 237.577V242.097H307.879V233.428H309.391V234.972C309.552 234.513 309.816 234.121 310.152 233.843C310.488 233.565 310.882 233.414 311.286 233.408H311.685V235.364Z" fill="#EB5D1D"/>
<path d="M311.961 239.688C311.961 237.515 314.114 237.001 316.648 236.671V236.506C316.648 235.034 315.975 234.581 315.202 234.581C315.026 234.556 314.848 234.578 314.679 234.645C314.51 234.712 314.354 234.823 314.222 234.97C314.09 235.117 313.985 235.296 313.913 235.497C313.841 235.698 313.805 235.916 313.806 236.136H312.285C312.393 234.386 313.573 233.171 315.252 233.171C316.931 233.171 318.236 234.118 318.194 236.877C318.194 237.289 318.194 238.318 318.194 239.101C318.18 240.092 318.249 241.082 318.402 242.055H316.989C316.928 241.667 316.883 241.276 316.856 240.882C316.609 241.346 316.266 241.719 315.862 241.962C315.459 242.205 315.01 242.308 314.562 242.261C313.025 242.261 311.961 241.252 311.961 239.688ZM316.69 237.999C314.504 238.257 313.598 238.658 313.598 239.636C313.598 240.388 314.105 240.841 314.878 240.841C315.119 240.881 315.365 240.854 315.597 240.759C315.828 240.665 316.039 240.507 316.214 240.296C316.388 240.086 316.522 239.829 316.604 239.545C316.687 239.261 316.716 238.958 316.69 238.658V237.999Z" fill="#EB5D1D"/>
<path d="M321.284 242.055H319.746V233.428H321.284V234.633C321.479 234.186 321.772 233.817 322.129 233.569C322.487 233.322 322.894 233.205 323.303 233.233C323.73 233.177 324.16 233.296 324.528 233.571C324.896 233.846 325.181 234.262 325.339 234.756C325.58 234.282 325.915 233.892 326.312 233.625C326.71 233.358 327.156 233.223 327.608 233.233C329.271 233.233 329.886 234.581 329.886 236.64V242.055H328.306V237.103C328.306 235.95 328.223 234.787 327.076 234.787C325.93 234.787 325.555 235.909 325.555 237.464V242.055H324.01V237.103C324.01 235.95 323.918 234.787 322.78 234.787C321.641 234.787 321.25 235.909 321.25 237.464L321.284 242.055Z" fill="#EB5D1D"/>
<path d="M332.599 238.287C332.597 238.913 332.793 239.514 333.146 239.961C333.499 240.408 333.981 240.665 334.485 240.676C334.837 240.727 335.193 240.638 335.501 240.421C335.809 240.205 336.053 239.872 336.197 239.471H337.71C337.512 240.307 337.093 241.036 336.52 241.542C335.947 242.048 335.254 242.301 334.552 242.261C334.071 242.274 333.594 242.163 333.15 241.934C332.706 241.706 332.305 241.365 331.974 240.934C331.642 240.503 331.387 239.991 331.224 239.43C331.061 238.87 330.994 238.274 331.028 237.68C331.001 237.105 331.069 236.528 331.229 235.987C331.389 235.446 331.638 234.951 331.959 234.534C332.28 234.117 332.667 233.786 333.096 233.562C333.525 233.338 333.987 233.226 334.452 233.233C336.588 233.233 337.935 235.405 337.777 238.287H332.599ZM332.599 236.887H336.222C336.221 236.601 336.175 236.318 336.085 236.054C335.995 235.791 335.864 235.552 335.7 235.351C335.535 235.15 335.341 234.991 335.126 234.884C334.912 234.776 334.683 234.723 334.452 234.725C333.977 234.717 333.518 234.938 333.172 235.341C332.826 235.745 332.62 236.299 332.599 236.887Z" fill="#EB5D1D"/>
<path d="M340.599 234.633C340.807 234.175 341.116 233.801 341.49 233.553C341.864 233.305 342.287 233.194 342.71 233.233C344.372 233.233 345.078 234.581 345.078 236.64V242.055H343.541V237.104C343.541 235.95 343.408 234.787 342.219 234.787C341.031 234.787 340.557 235.909 340.557 237.464V242.055H339.02V233.428H340.557L340.599 234.633Z" fill="#EB5D1D"/>
<path d="M346.91 231.153H348.447V233.428H349.852V234.808H348.447V239.502C348.447 240.388 348.622 240.593 349.279 240.593H349.835V242.055H348.697C347.209 242.055 346.91 241.561 346.91 239.79V234.808H345.871V233.428H346.91V231.153Z" fill="#EB5D1D"/>
<path d="M357.488 237.762C357.446 238.592 357.209 239.389 356.805 240.054C356.402 240.719 355.851 241.223 355.219 241.505C354.587 241.787 353.903 241.833 353.25 241.639C352.597 241.445 352.005 241.018 351.545 240.412C351.086 239.805 350.78 239.046 350.664 238.226C350.549 237.407 350.63 236.564 350.897 235.801C351.164 235.038 351.605 234.388 352.166 233.932C352.727 233.475 353.384 233.232 354.056 233.233C354.531 233.211 355.004 233.315 355.444 233.539C355.883 233.762 356.279 234.1 356.604 234.529C356.93 234.959 357.177 235.469 357.329 236.027C357.482 236.585 357.536 237.177 357.488 237.762ZM354.056 240.707C355.045 240.707 355.892 239.76 355.892 237.762C355.892 235.765 355.061 234.787 354.056 234.787C353.05 234.787 352.219 235.765 352.219 237.762C352.219 239.76 353.075 240.707 354.072 240.707H354.056Z" fill="#EB5D1D"/>
<path d="M358.328 239.873H360.09V242.179L359.184 244.547H358.27L359.101 242.014H358.27L358.328 239.873Z" fill="#EB5D1D"/>
<path d="M372.707 238.195C372.58 239.387 372.088 240.474 371.334 241.23C370.579 241.987 369.619 242.356 368.651 242.261C365.908 242.261 364.312 239.863 364.312 236.198C364.312 232.533 365.975 230.216 368.734 230.216C369.694 230.138 370.641 230.523 371.377 231.29C372.113 232.058 372.581 233.149 372.682 234.334H371.103C371.008 233.634 370.708 233.001 370.26 232.556C369.813 232.112 369.249 231.887 368.676 231.925C367.188 231.925 366.016 233.438 366.016 236.239C366.016 239.039 367.163 240.635 368.668 240.635C369.251 240.699 369.832 240.487 370.295 240.042C370.757 239.597 371.067 238.952 371.161 238.236L372.707 238.195Z" fill="#EB5D1D"/>
<path d="M376.397 230.432H378.175L381.699 242.055H379.838L379.098 239.471H375.292L374.568 242.055H372.906L376.397 230.432ZM375.79 237.773H378.624L377.203 232.79L375.79 237.773Z" fill="#EB5D1D"/>
<path d="M286.278 394.184H291.007V395.904H284.633V384.25H286.295L286.278 394.184Z" fill="#EB5D1D"/>
<path d="M298.274 391.6C298.233 392.431 297.997 393.228 297.595 393.895C297.193 394.561 296.642 395.067 296.01 395.35C295.378 395.634 294.694 395.682 294.04 395.488C293.387 395.295 292.793 394.869 292.333 394.263C291.873 393.657 291.566 392.897 291.45 392.078C291.334 391.258 291.415 390.414 291.681 389.651C291.948 388.887 292.389 388.237 292.951 387.78C293.512 387.323 294.169 387.08 294.841 387.081C295.315 387.059 295.788 387.163 296.227 387.386C296.666 387.609 297.061 387.946 297.387 388.374C297.712 388.802 297.959 389.312 298.112 389.868C298.265 390.424 298.32 391.015 298.274 391.6ZM294.841 394.555C295.83 394.555 296.678 393.608 296.678 391.6C296.678 389.593 295.847 388.635 294.841 388.635C293.836 388.635 293.005 389.665 293.005 391.6C293.005 393.536 293.861 394.544 294.841 394.544V394.555Z" fill="#EB5D1D"/>
<path d="M303.576 389.623C303.401 388.841 302.819 388.542 302.047 388.542C301.274 388.542 300.75 388.903 300.75 389.479C300.75 390.056 301.074 390.365 301.681 390.509L302.67 390.746C304.074 391.085 305.163 391.631 305.163 393.319C305.163 395.008 303.792 396.109 302.204 396.109C301.505 396.192 300.806 395.946 300.247 395.42C299.688 394.893 299.31 394.125 299.188 393.268H300.692C300.755 393.709 300.954 394.102 301.248 394.363C301.541 394.624 301.905 394.734 302.263 394.668C303.094 394.668 303.659 394.246 303.659 393.546C303.659 392.846 303.144 392.516 302.454 392.352L301.407 392.094C300.226 391.796 299.304 391.168 299.304 389.582C299.304 387.997 300.642 387.081 302.146 387.081C302.794 387.003 303.442 387.218 303.971 387.685C304.501 388.152 304.877 388.841 305.03 389.623H303.576Z" fill="#EB5D1D"/>
<path d="M312.017 384.25H313.746L317.27 395.883H315.474L314.735 393.299H310.928L310.205 395.883H308.543L312.017 384.25ZM311.41 391.6H314.244L312.815 386.607L311.41 391.6Z" fill="#EB5D1D"/>
<path d="M319.681 388.47C319.893 388.018 320.203 387.647 320.576 387.402C320.949 387.156 321.37 387.045 321.792 387.081C323.454 387.081 324.16 388.429 324.16 390.478V395.904H322.623V390.941C322.623 389.788 322.49 388.635 321.301 388.635C320.113 388.635 319.639 389.757 319.639 391.312V395.904H318.102V387.266H319.639L319.681 388.47Z" fill="#EB5D1D"/>
<path d="M330.393 387.266H331.931V395.028C331.977 395.587 331.926 396.151 331.783 396.683C331.64 397.216 331.407 397.704 331.1 398.117C330.397 398.816 329.504 399.152 328.606 399.054C327.077 399.054 325.872 398.302 325.623 396.408H327.152C327.293 397.221 327.709 397.54 328.64 397.54C328.893 397.572 329.15 397.533 329.39 397.426C329.63 397.319 329.848 397.147 330.027 396.923C330.279 396.502 330.403 395.984 330.377 395.461V394.431C330.159 394.862 329.852 395.213 329.488 395.448C329.125 395.683 328.717 395.794 328.307 395.77C326.645 395.77 325.273 394.122 325.273 391.425C325.273 388.728 326.645 387.101 328.307 387.101C328.718 387.077 329.126 387.189 329.49 387.426C329.854 387.663 330.16 388.017 330.377 388.45L330.393 387.266ZM328.656 388.604C327.617 388.604 326.894 389.634 326.894 391.405C326.894 393.175 327.617 394.246 328.656 394.246C329.695 394.246 330.46 393.35 330.46 391.405C330.46 389.459 329.653 388.604 328.656 388.604Z" fill="#EB5D1D"/>
<path d="M334.76 392.125C334.755 392.749 334.947 393.351 335.294 393.803C335.642 394.254 336.118 394.52 336.621 394.544C336.965 394.582 337.31 394.487 337.608 394.271C337.905 394.055 338.142 393.73 338.283 393.34H339.804C339.602 394.175 339.181 394.902 338.607 395.407C338.034 395.913 337.341 396.167 336.638 396.13C336.157 396.141 335.68 396.029 335.236 395.799C334.793 395.569 334.393 395.227 334.062 394.795C333.731 394.363 333.477 393.85 333.315 393.289C333.153 392.729 333.088 392.132 333.122 391.538C333.095 390.964 333.163 390.389 333.323 389.849C333.483 389.309 333.731 388.816 334.051 388.399C334.371 387.983 334.758 387.653 335.186 387.43C335.613 387.206 336.074 387.095 336.538 387.101C338.674 387.101 340.021 389.263 339.863 392.146L334.76 392.125ZM334.76 390.735H338.383C338.383 390.449 338.337 390.165 338.248 389.901C338.159 389.636 338.028 389.397 337.863 389.196C337.699 388.994 337.503 388.836 337.289 388.729C337.074 388.622 336.844 388.569 336.613 388.573C336.138 388.565 335.679 388.786 335.333 389.189C334.987 389.593 334.781 390.147 334.76 390.735Z" fill="#EB5D1D"/>
<path d="M342.76 395.904H341.223V384.25H342.76V395.904Z" fill="#EB5D1D"/>
<path d="M345.605 392.125C345.603 392.752 345.799 393.354 346.152 393.803C346.505 394.251 346.986 394.51 347.492 394.524C347.844 394.575 348.199 394.486 348.507 394.269C348.815 394.053 349.059 393.72 349.204 393.319H350.75C350.55 394.154 350.131 394.882 349.558 395.388C348.986 395.894 348.294 396.148 347.592 396.109C347.11 396.122 346.632 396.011 346.187 395.782C345.743 395.552 345.342 395.211 345.01 394.778C344.679 394.346 344.423 393.833 344.261 393.271C344.099 392.71 344.033 392.113 344.068 391.518C344.04 390.944 344.109 390.369 344.268 389.829C344.428 389.289 344.676 388.795 344.996 388.379C345.317 387.963 345.703 387.633 346.131 387.409C346.559 387.186 347.019 387.074 347.483 387.081C349.619 387.081 350.966 389.243 350.808 392.125H345.605ZM345.605 390.735H349.229C349.228 390.448 349.181 390.164 349.091 389.9C349 389.636 348.869 389.396 348.703 389.195C348.538 388.994 348.342 388.836 348.127 388.729C347.912 388.622 347.682 388.569 347.45 388.573C346.977 388.568 346.519 388.79 346.175 389.193C345.831 389.596 345.627 390.149 345.605 390.735Z" fill="#EB5D1D"/>
<path d="M356.068 389.623C355.893 388.841 355.312 388.542 354.539 388.542C353.766 388.542 353.242 388.903 353.242 389.479C353.242 390.056 353.566 390.365 354.173 390.509L355.162 390.746C356.567 391.085 357.655 391.631 357.655 393.319C357.655 395.008 356.284 396.109 354.697 396.109C353.997 396.192 353.299 395.946 352.739 395.42C352.18 394.893 351.802 394.125 351.68 393.268H353.184C353.247 393.709 353.447 394.102 353.74 394.363C354.033 394.624 354.397 394.734 354.755 394.668C355.586 394.668 356.151 394.246 356.151 393.546C356.151 392.846 355.636 392.516 354.946 392.352L353.899 392.094C352.719 391.796 351.796 391.168 351.796 389.582C351.796 387.997 353.134 387.081 354.638 387.081C355.286 387.003 355.934 387.218 356.464 387.685C356.993 388.152 357.369 388.841 357.522 389.623H356.068Z" fill="#EB5D1D"/>
<path d="M358.594 393.721H360.348V396.058L359.442 398.436H358.527L359.358 395.903H358.527L358.594 393.721Z" fill="#EB5D1D"/>
<path d="M372.964 392.032C372.847 393.234 372.36 394.333 371.604 395.101C370.848 395.868 369.882 396.244 368.908 396.15C366.165 396.15 364.578 393.741 364.578 390.087C364.578 386.432 366.24 384.105 368.991 384.105C369.951 384.027 370.899 384.412 371.635 385.18C372.371 385.947 372.838 387.038 372.939 388.223H371.36C371.268 387.523 370.971 386.889 370.524 386.444C370.077 385.999 369.514 385.775 368.941 385.814C367.445 385.814 366.274 387.317 366.274 390.128C366.274 392.938 367.42 394.524 368.925 394.524C369.509 394.588 370.092 394.374 370.554 393.927C371.017 393.48 371.326 392.833 371.418 392.115L372.964 392.032Z" fill="#EB5D1D"/>
<path d="M376.654 384.25H378.391L381.915 395.883H380.111L379.38 393.299H375.573L374.842 395.883H373.18L376.654 384.25ZM376.047 391.6H378.881L377.46 386.607L376.047 391.6Z" fill="#EB5D1D"/>
<path d="M332.132 194.822C329.314 194.822 326.56 193.787 324.218 191.848C321.875 189.909 320.049 187.153 318.971 183.929C317.893 180.705 317.611 177.157 318.16 173.734C318.71 170.311 320.067 167.167 322.059 164.699C324.051 162.231 326.589 160.551 329.353 159.87C332.116 159.189 334.98 159.539 337.583 160.874C340.186 162.21 342.411 164.471 343.976 167.373C345.542 170.275 346.377 173.686 346.377 177.176C346.377 179.494 346.009 181.788 345.293 183.929C344.577 186.07 343.528 188.015 342.205 189.654C340.882 191.292 339.312 192.592 337.583 193.479C335.855 194.366 334.003 194.822 332.132 194.822Z" fill="#EB5D1D"/>
<path d="M339.727 172.173L335.147 166.5V170.691H334.674C332.854 170.691 331.034 170.618 329.213 170.691C326.82 170.804 324.867 171.977 323.869 174.809C322.723 178.124 323.579 182.478 326.196 184.311C327.052 184.906 328.016 185.218 328.997 185.217C332.529 185.217 336.062 185.217 339.594 185.217C339.677 185.223 339.76 185.223 339.843 185.217C339.843 184.331 339.843 183.456 339.843 182.581C339.843 182.499 339.619 182.355 339.494 182.355C338.281 182.355 337.067 182.355 335.854 182.355C333.735 182.355 331.607 182.355 329.488 182.355C328.857 182.36 328.232 182.22 327.643 181.943C327.044 181.623 326.54 181.081 326.201 180.391C325.861 179.702 325.703 178.898 325.748 178.093C325.705 177.498 325.768 176.899 325.931 176.338C326.094 175.776 326.354 175.265 326.692 174.84C327.031 174.415 327.44 174.086 327.891 173.876C328.342 173.666 328.824 173.581 329.305 173.625C331.108 173.625 332.912 173.625 334.724 173.625C335.048 173.625 335.156 173.738 335.139 174.15C335.139 175.179 335.139 176.281 335.139 177.341C335.139 177.506 335.139 177.681 335.139 177.846C336.685 175.931 338.214 174.047 339.719 172.173" fill="#FFFAF1"/>
<path d="M332.132 347.188C334.949 347.185 337.703 346.149 340.044 344.209C342.386 342.269 344.21 339.512 345.287 336.288C346.364 333.063 346.645 329.515 346.094 326.093C345.544 322.671 344.186 319.528 342.194 317.061C340.201 314.594 337.663 312.915 334.9 312.235C332.137 311.555 329.273 311.905 326.671 313.241C324.068 314.576 321.844 316.838 320.279 319.74C318.714 322.641 317.879 326.052 317.879 329.542C317.879 331.86 318.248 334.155 318.964 336.297C319.68 338.439 320.731 340.384 322.054 342.023C323.378 343.662 324.949 344.961 326.678 345.847C328.408 346.733 330.261 347.189 332.132 347.188Z" fill="#EB5D1D"/>
<path d="M324.526 324.539L329.106 318.866V323.056H329.58C331.4 323.056 333.22 322.984 335.04 323.056C337.433 323.169 339.395 324.343 340.384 327.174C341.531 330.489 340.675 334.844 338.065 336.676C337.209 337.269 336.245 337.581 335.264 337.582C331.724 337.582 328.192 337.582 324.659 337.582C324.576 337.588 324.493 337.588 324.41 337.582C324.41 336.697 324.41 335.822 324.41 334.947C324.41 334.864 324.634 334.72 324.759 334.72C325.973 334.72 327.186 334.72 328.399 334.72C330.519 334.72 332.646 334.72 334.766 334.72C335.396 334.72 336.02 334.581 336.611 334.309C337.212 333.989 337.717 333.446 338.057 332.754C338.396 332.062 338.553 331.256 338.506 330.448C338.546 329.855 338.483 329.258 338.32 328.699C338.157 328.139 337.898 327.63 337.56 327.206C337.223 326.783 336.816 326.455 336.366 326.245C335.917 326.035 335.436 325.948 334.957 325.99C333.145 325.99 331.341 325.99 329.53 325.99C329.206 325.99 329.106 326.103 329.114 326.515C329.114 327.545 329.114 328.636 329.114 329.707C329.114 329.871 329.114 330.046 329.114 330.211L324.535 324.539" fill="#FFFAF1"/>
<path d="M476.086 23.7299H473.535V2.38844H476.086V23.7299ZM434.764 2.39873H437.332V23.7608H434.764V2.39873ZM442.244 23.699H439.626V2.36785H442.244V23.699ZM468.698 2.42961H471.349V23.7711H468.698V2.42961ZM483.234 2.42961H485.902V23.8432H483.234V2.42961ZM481.098 23.802H478.33V2.42961H481.098V23.802ZM429.935 2.4605H432.62V23.8226H429.935V2.4605ZM444.371 2.4605H447.073V23.8843H444.371V2.4605ZM449.292 2.4605H451.968V23.8123H449.292V2.4605ZM454.129 2.4605H456.838V23.8637H454.129V2.4605ZM459.024 2.4605H461.692V23.8226H459.024V2.4605ZM466.587 23.8226H463.894V2.30608H466.587V23.8226ZM427.891 26.108H487.855V0H427.891V26.108Z" fill="#EB5D1D"/>
<path d="M490.995 10.7171V7.27858C494.86 6.48587 498.176 7.35064 500.819 11.0877C502.766 13.8092 504.188 17.0449 504.974 20.5488C505.041 21.2293 505.314 21.8529 505.739 22.2927C506.163 22.7326 506.707 22.9556 507.26 22.9166C509.911 23.1328 511.208 24.6153 511.523 27.2405H490.854C490.854 22.7622 490.854 18.4589 490.854 14.1453C490.869 13.8004 490.9 13.4567 490.945 13.1158L490.995 10.7171ZM427.781 27.3126V35.6824H431.579C431.671 35.0235 431.779 34.3337 431.895 33.5513L429.801 33.366V29.9893H511.981C512.147 31.0805 512.305 32.1718 512.487 33.3763L509.994 33.5513C510.086 34.2926 510.169 34.9411 510.268 35.7133H515.056C515.097 35.1964 515.097 34.6756 515.056 34.1587C514.657 31.8218 514.225 29.4951 513.792 27.1684C513.136 23.4931 511.299 21.1768 508.34 20.6003C507.335 20.4047 507.102 19.8384 506.728 18.8398C505.78 16.0628 504.62 13.4048 503.262 10.9024C500.769 6.67118 497.444 4.05625 492.965 4.66365C491.658 4.74681 490.349 4.74681 489.042 4.66365V27.3126H427.781Z" fill="#EB5D1D"/>
<path d="M434.689 35.1059C435.122 34.7249 435.778 33.7263 436.534 33.6028C437.673 33.4175 438.446 34.4367 438.421 35.9603C438.438 36.2642 438.403 36.5691 438.316 36.8544C438.23 37.1397 438.095 37.3986 437.921 37.6135C437.747 37.8284 437.537 37.9943 437.307 38.0999C437.076 38.2054 436.83 38.2482 436.584 38.2253C435.429 38.2253 434.681 37.4016 434.689 35.1367V35.1059ZM432.72 36.0015C432.719 36.6238 432.817 37.2402 433.008 37.8154C433.2 38.3906 433.482 38.9132 433.837 39.3532C434.192 39.7932 434.614 40.142 435.078 40.3795C435.543 40.617 436.04 40.7386 436.543 40.7372C437.058 40.7359 437.569 40.6077 438.044 40.3598C438.519 40.1119 438.95 39.7494 439.311 39.2934C439.673 38.8374 439.957 38.2969 440.148 37.7035C440.339 37.1101 440.433 36.4756 440.424 35.8368C440.399 34.5835 439.985 33.3903 439.268 32.5048C438.552 31.6192 437.588 31.1092 436.576 31.0805C436.061 31.0858 435.552 31.2178 435.078 31.4688C434.605 31.7197 434.176 32.0847 433.817 32.5425C433.459 33.0003 433.177 33.5418 432.988 34.1356C432.8 34.7294 432.709 35.3636 432.72 36.0015Z" fill="#EB5D1D"/>
<path d="M473.408 36.5266C472.934 36.9693 472.294 38.009 471.538 38.1635C470.416 38.4003 469.626 37.4531 469.61 35.8986C469.585 35.5967 469.612 35.2918 469.69 35.0041C469.768 34.7164 469.895 34.4526 470.061 34.2303C470.228 34.0081 470.431 33.8326 470.657 33.7155C470.883 33.5984 471.127 33.5424 471.372 33.5513C472.552 33.4896 473.242 34.3749 473.408 36.5266ZM467.648 35.8986C467.648 37.1518 468.05 38.3538 468.766 39.2399C469.481 40.1261 470.451 40.624 471.463 40.624C472.475 40.624 473.445 40.1261 474.161 39.2399C474.876 38.3538 475.278 37.1518 475.278 35.8986C475.278 34.6453 474.876 33.4434 474.161 32.5572C473.445 31.6711 472.475 31.1732 471.463 31.1732C470.451 31.1732 469.481 31.6711 468.766 32.5572C468.05 33.4434 467.648 34.6453 467.648 35.8986Z" fill="#EB5D1D"/>
<path d="M503.513 35.9398C503.499 35.6163 503.542 35.2929 503.637 34.9912C503.732 34.6895 503.878 34.4165 504.065 34.1904C504.253 33.9642 504.477 33.7903 504.723 33.6801C504.968 33.5699 505.23 33.526 505.491 33.5514C505.992 33.5514 506.471 33.7976 506.825 34.2358C507.179 34.6741 507.378 35.2685 507.378 35.8883C507.378 36.5081 507.179 37.1025 506.825 37.5408C506.471 37.979 505.992 38.2253 505.491 38.2253C505.237 38.2511 504.982 38.211 504.742 38.1075C504.501 38.004 504.28 37.8393 504.094 37.6242C503.908 37.409 503.76 37.1481 503.66 36.858C503.56 36.5679 503.51 36.2552 503.513 35.9398ZM501.577 35.9398C501.56 36.5806 501.649 37.2188 501.837 37.8161C502.025 38.4133 502.309 38.9571 502.672 39.4146C503.034 39.8722 503.468 40.234 503.947 40.4782C504.425 40.7225 504.939 40.8441 505.456 40.8357C505.974 40.8274 506.484 40.6892 506.958 40.4296C507.431 40.17 507.857 39.7943 508.21 39.3252C508.562 38.8561 508.835 38.3034 509.01 37.7003C509.186 37.0972 509.261 36.4563 509.231 35.8162C509.248 35.1755 509.159 34.5372 508.971 33.94C508.783 33.3427 508.499 32.799 508.136 32.3414C507.774 31.8839 507.34 31.5221 506.861 31.2778C506.383 31.0336 505.869 30.9119 505.352 30.9203C504.834 30.9286 504.324 31.0668 503.85 31.3264C503.377 31.586 502.951 31.9617 502.598 32.4308C502.246 32.8999 501.973 33.4527 501.798 34.0557C501.622 34.6588 501.547 35.2997 501.577 35.9398Z" fill="#EB5D1D"/>
<path d="M447.237 33.4896C448.376 33.7469 449.157 34.447 449.099 36.0015C449.099 36.6241 448.899 37.2211 448.544 37.6613C448.188 38.1015 447.706 38.3488 447.204 38.3488C446.701 38.3488 446.219 38.1015 445.864 37.6613C445.508 37.2211 445.309 36.6241 445.309 36.0015C445.298 35.6793 445.339 35.3576 445.431 35.0559C445.523 34.7541 445.663 34.4785 445.843 34.2457C446.023 34.0129 446.24 33.8277 446.479 33.7013C446.719 33.5749 446.977 33.5099 447.237 33.5102V33.4896ZM451.052 35.8471C451.045 35.2212 450.939 34.6029 450.74 34.0277C450.54 33.4525 450.251 32.9316 449.889 32.4947C449.528 32.0579 449.1 31.7136 448.63 31.4815C448.161 31.2495 447.659 31.1342 447.154 31.1423C446.649 31.1504 446.15 31.2817 445.685 31.5288C445.221 31.7758 444.8 32.1337 444.448 32.5821C444.095 33.0304 443.817 33.5605 443.63 34.1419C443.442 34.7233 443.349 35.3447 443.356 35.9706C443.369 37.2348 443.787 38.4407 444.518 39.323C445.249 40.2054 446.233 40.6918 447.254 40.6754C448.274 40.6591 449.248 40.1412 449.96 39.2357C450.672 38.3302 451.065 37.1113 451.052 35.8471Z" fill="#EB5D1D"/>
<path d="M482.236 33.4998C482.494 33.516 482.746 33.5975 482.977 33.7394C483.209 33.8813 483.414 34.0804 483.581 34.3246C483.748 34.5687 483.872 34.8527 483.947 35.1588C484.021 35.465 484.044 35.7868 484.014 36.1045C483.969 36.7077 483.737 37.266 483.368 37.6635C482.999 38.061 482.521 38.2673 482.032 38.2395C481.543 38.2117 481.082 37.9519 480.744 37.5141C480.406 37.0763 480.217 36.4941 480.216 35.8883C480.216 35.5648 480.269 35.2447 480.371 34.9473C480.474 34.6499 480.624 34.3814 480.813 34.158C481.002 33.9347 481.225 33.7612 481.47 33.6481C481.714 33.5349 481.975 33.4845 482.236 33.4998ZM485.992 35.8162C485.965 34.5644 485.552 33.373 484.838 32.4866C484.124 31.6002 483.163 31.086 482.153 31.0496C481.641 31.0591 481.135 31.1933 480.665 31.4447C480.195 31.6961 479.77 32.0597 479.414 32.5148C479.057 32.9698 478.776 33.5074 478.587 34.0968C478.399 34.6862 478.305 35.316 478.313 35.95C478.321 36.5841 478.429 37.2101 478.632 37.7923C478.835 38.3745 479.128 38.9014 479.496 39.3431C479.863 39.7848 480.297 40.1325 480.773 40.3664C481.249 40.6003 481.757 40.7158 482.269 40.7063C483.279 40.6427 484.23 40.0985 484.923 39.1874C485.617 38.2763 486 37.0686 485.992 35.8162Z" fill="#EB5D1D"/>
<path d="M451.758 33.5616C451.874 34.3234 451.982 34.972 452.098 35.7441H466.61C466.693 35.0235 466.776 34.3234 466.859 33.5616H451.758Z" fill="#EB5D1D"/>
<path d="M500.604 35.7544C500.662 34.9411 500.712 34.2925 500.762 33.5822H486.633C486.766 34.3543 486.882 34.9926 487.007 35.7544H500.604Z" fill="#EB5D1D"/>
<path d="M502.838 20.1987C502.838 16.1631 500.602 12.9922 497.852 13.2393V20.1987H502.838Z" fill="#EB5D1D"/>
<path d="M485.877 2.3884H429.91V23.7814H485.877V2.3884Z" fill="#FFFAF1"/>
<path d="M417.32 16.091H406.715" stroke="#EB5D1D" stroke-width="1.97"/>
<path d="M413.113 22.0415H402.508" stroke="#EB5D1D" stroke-width="1.97"/>
<path d="M417.32 27.7141H406.715" stroke="#EB5D1D" stroke-width="1.97"/>
<path d="M189.853 328.266H192.404V306.924H189.853V328.266ZM231.175 306.934H228.574V328.296H231.142L231.175 306.934ZM223.695 328.235H226.322V306.903H223.695V328.235ZM197.241 306.965H194.59V328.307H197.241V306.965ZM182.705 306.965H180.037V328.379H182.705V306.965ZM184.841 328.338H187.617V306.965H184.841V328.338ZM236.054 306.955H233.37V328.317H236.054V306.955ZM221.618 306.955H218.925V328.379H221.618V306.955ZM216.698 306.955H214.021V328.307H216.698V306.955ZM211.861 306.955H209.126V328.358H211.836L211.861 306.955ZM206.965 306.955H204.297V328.317H206.965V306.955ZM199.402 328.317H202.095V306.873H199.402V328.317ZM238.099 330.603H178.109V304.536H238.074L238.099 330.603Z" fill="#EB5D1D"/>
<path d="M174.952 315.273V311.835C171.079 311.042 167.763 311.907 165.12 315.644C163.172 318.365 161.751 321.601 160.964 325.105C160.898 325.785 160.624 326.409 160.2 326.849C159.775 327.289 159.231 327.512 158.679 327.473C156.036 327.689 154.739 329.171 154.415 331.797H175.051C175.051 327.318 175.051 323.015 175.051 318.701C175.036 318.357 175.006 318.013 174.96 317.672L174.952 315.273ZM238.082 331.869V340.239H234.293C234.193 339.58 234.093 338.89 233.977 338.107L236.055 337.922V334.545H153.966C153.8 335.637 153.642 336.728 153.459 337.932L155.953 338.107C155.853 338.849 155.77 339.497 155.67 340.269H150.883C150.841 339.753 150.841 339.232 150.883 338.715C151.282 336.378 151.714 334.051 152.146 331.725C152.794 328.039 154.59 325.733 157.59 325.156C158.596 324.961 158.828 324.395 159.202 323.396C160.15 320.619 161.31 317.961 162.668 315.459C165.161 311.227 168.486 308.612 172.965 309.22C174.272 309.303 175.581 309.303 176.888 309.22V331.869H238.082Z" fill="#EB5D1D"/>
<path d="M231.258 339.641C230.826 339.26 230.17 338.262 229.413 338.138C228.275 337.953 227.51 338.972 227.527 340.496C227.509 340.801 227.545 341.107 227.632 341.393C227.719 341.679 227.854 341.938 228.029 342.153C228.205 342.368 228.415 342.534 228.647 342.639C228.879 342.744 229.126 342.785 229.372 342.761C230.527 342.761 231.267 341.937 231.258 339.672V339.641ZM233.228 340.537C233.229 341.159 233.131 341.776 232.939 342.351C232.748 342.926 232.466 343.449 232.111 343.889C231.756 344.329 231.334 344.677 230.869 344.915C230.405 345.153 229.907 345.274 229.405 345.273C228.889 345.273 228.379 345.145 227.904 344.898C227.428 344.65 226.997 344.288 226.637 343.831C226.276 343.375 225.992 342.834 225.803 342.24C225.613 341.646 225.521 341.011 225.532 340.372C225.553 339.117 225.966 337.921 226.683 337.035C227.401 336.148 228.367 335.64 229.38 335.616C229.895 335.621 230.404 335.753 230.877 336.004C231.35 336.256 231.778 336.621 232.136 337.079C232.494 337.537 232.775 338.078 232.963 338.672C233.15 339.266 233.24 339.9 233.228 340.537Z" fill="#EB5D1D"/>
<path d="M192.53 341.062C193.003 341.505 193.643 342.545 194.4 342.699C195.522 342.936 196.311 341.989 196.328 340.434C196.353 340.132 196.325 339.827 196.247 339.54C196.17 339.252 196.043 338.988 195.876 338.766C195.709 338.544 195.506 338.368 195.28 338.251C195.054 338.134 194.811 338.078 194.566 338.087C193.386 338.025 192.696 338.91 192.53 341.062ZM198.298 340.434C198.298 341.687 197.896 342.889 197.18 343.775C196.465 344.662 195.494 345.16 194.483 345.16C193.471 345.16 192.501 344.662 191.785 343.775C191.07 342.889 190.668 341.687 190.668 340.434C190.668 339.181 191.07 337.979 191.785 337.093C192.501 336.207 193.471 335.709 194.483 335.709C195.494 335.709 196.465 336.207 197.18 337.093C197.896 337.979 198.298 339.181 198.298 340.434Z" fill="#EB5D1D"/>
<path d="M162.428 340.475C162.442 340.152 162.399 339.828 162.304 339.527C162.209 339.225 162.063 338.952 161.876 338.726C161.688 338.5 161.464 338.326 161.218 338.216C160.973 338.105 160.71 338.061 160.45 338.087C159.949 338.087 159.47 338.333 159.116 338.771C158.762 339.21 158.563 339.804 158.563 340.424C158.563 341.044 158.762 341.638 159.116 342.076C159.47 342.515 159.949 342.761 160.45 342.761C160.703 342.787 160.958 342.747 161.198 342.643C161.438 342.539 161.658 342.375 161.844 342.159C162.029 341.944 162.177 341.683 162.276 341.393C162.375 341.103 162.424 340.79 162.419 340.475H162.428ZM164.356 340.475C164.373 341.116 164.285 341.755 164.097 342.352C163.91 342.95 163.626 343.494 163.264 343.952C162.902 344.411 162.469 344.773 161.99 345.018C161.512 345.263 160.998 345.385 160.481 345.378C159.963 345.37 159.452 345.233 158.979 344.974C158.505 344.715 158.079 344.339 157.726 343.871C157.373 343.402 157.1 342.849 156.924 342.246C156.748 341.643 156.672 341.002 156.702 340.362C156.684 339.721 156.772 339.083 156.96 338.485C157.148 337.887 157.431 337.343 157.793 336.885C158.155 336.427 158.589 336.064 159.067 335.819C159.545 335.574 160.059 335.452 160.577 335.459C161.094 335.467 161.605 335.605 162.079 335.864C162.552 336.123 162.978 336.498 163.332 336.967C163.685 337.436 163.958 337.988 164.134 338.591C164.31 339.194 164.385 339.835 164.356 340.475Z" fill="#EB5D1D"/>
<path d="M218.702 338.025C217.564 338.282 216.791 338.983 216.841 340.537C216.841 341.16 217.04 341.757 217.396 342.197C217.751 342.637 218.233 342.884 218.736 342.884C219.238 342.884 219.72 342.637 220.076 342.197C220.431 341.757 220.631 341.16 220.631 340.537C220.642 340.215 220.6 339.893 220.508 339.591C220.416 339.29 220.276 339.014 220.096 338.781C219.916 338.548 219.699 338.363 219.46 338.237C219.22 338.11 218.963 338.045 218.702 338.046V338.025ZM214.888 340.383C214.904 339.443 215.144 338.531 215.576 337.76C216.009 336.988 216.616 336.392 217.321 336.045C218.026 335.699 218.798 335.618 219.54 335.812C220.282 336.006 220.961 336.467 221.493 337.137C222.025 337.807 222.385 338.656 222.529 339.578C222.673 340.501 222.594 341.455 222.303 342.322C222.011 343.19 221.52 343.931 220.89 344.454C220.26 344.977 219.519 345.258 218.761 345.263C218.246 345.265 217.736 345.141 217.26 344.895C216.785 344.65 216.354 344.289 215.993 343.835C215.632 343.38 215.348 342.84 215.158 342.247C214.969 341.654 214.877 341.02 214.888 340.383Z" fill="#EB5D1D"/>
<path d="M183.694 338.035C183.436 338.05 183.183 338.13 182.952 338.272C182.72 338.413 182.515 338.613 182.348 338.858C182.182 339.102 182.058 339.387 181.985 339.694C181.912 340.001 181.891 340.323 181.924 340.64C181.926 340.945 181.981 341.247 182.085 341.524C182.188 341.801 182.338 342.048 182.524 342.248C182.71 342.449 182.928 342.598 183.164 342.686C183.4 342.775 183.649 342.8 183.893 342.761C184.14 342.772 184.387 342.718 184.616 342.603C184.845 342.489 185.052 342.315 185.224 342.095C185.396 341.875 185.528 341.612 185.612 341.324C185.697 341.036 185.731 340.729 185.713 340.424C185.715 340.1 185.663 339.779 185.561 339.481C185.459 339.183 185.308 338.914 185.119 338.69C184.93 338.467 184.706 338.293 184.461 338.181C184.216 338.068 183.955 338.019 183.694 338.035ZM179.946 340.352C179.971 339.101 180.382 337.91 181.095 337.023C181.807 336.136 182.767 335.622 183.777 335.585C184.289 335.595 184.794 335.729 185.264 335.98C185.734 336.232 186.16 336.595 186.516 337.05C186.873 337.505 187.153 338.043 187.342 338.632C187.531 339.222 187.624 339.852 187.617 340.486C187.609 341.12 187.501 341.746 187.298 342.328C187.095 342.91 186.801 343.437 186.434 343.879C186.066 344.32 185.633 344.668 185.157 344.902C184.681 345.136 184.173 345.251 183.661 345.242C182.651 345.181 181.7 344.637 181.007 343.725C180.314 342.813 179.934 341.604 179.946 340.352Z" fill="#EB5D1D"/>
<path d="M214.179 338.097C214.063 338.859 213.955 339.508 213.839 340.28H199.327C199.244 339.559 199.17 338.859 199.078 338.097H214.179Z" fill="#EB5D1D"/>
<path d="M165.338 340.29C165.279 339.477 165.23 338.828 165.18 338.118H179.309C179.176 338.89 179.068 339.528 178.935 340.29H165.338Z" fill="#EB5D1D"/>
<path d="M163.102 324.734C163.102 320.699 165.337 317.528 168.088 317.775V324.734H163.102Z" fill="#EB5D1D"/>
<path d="M236.029 306.924H180.062V328.317H236.029V306.924Z" fill="#FFFAF1"/>
<path d="M248.621 320.627H259.226" stroke="#EB5D1D" stroke-width="1.97"/>
<path d="M252.828 326.577H263.433" stroke="#EB5D1D" stroke-width="1.97"/>
<path d="M248.621 332.25H259.226" stroke="#EB5D1D" stroke-width="1.97"/>
</svg>
